<?xml version="1.0" encoding="UTF-8"?>
<svg id="Layer_2" data-name="Layer 2" xmlns="http://www.w3.org/2000/svg" viewBox="0 0 195.21 62">
  <defs>
    <style>
      .cls-1 {
        font-family: aAstroSpace, 'a Astro Space';
        font-size: 21.58px;
      }

      .cls-1, .cls-2 {
        fill: #fff;
      }

      .cls-2 {
        stroke-width: 0px;
      }
    </style>
  </defs>
  <g id="Objects">
    <g>
      <path class="cls-2" d="M52.28,51.4s0,0,0,0c-11.72-9.5-36.27-15.97-48.59-26.27.08.12.15.25.24.37.79,1.15,1.41,2.41,1.86,3.73,1.26,3.68,1.74,6.81,1.91,9.25.32,4.7-.49,7.21.4,12.05.72,3.94,2.15,7.22,3.53,9.69.62,1.11,1.8,1.78,3.06,1.78,2.09,0,3.76-1.82,3.5-3.89-.09-.75-.12-1.51-.06-2.3.39-5.85,5.76-11.1,11.61-11.35,6.98-.3,12.73,5.26,12.73,12.17,0,.47-.03.93-.08,1.39-.24,2.12,1.36,3.98,3.49,3.98h0c1.27,0,2.45-.67,3.06-1.78,1.03-1.86,2.09-4.18,2.86-6.9,2.59,1.71,4.94,3.46,7,5.3-.13-.3-.3-.57-.47-.88-1.37-2.27-3.46-4.36-6.04-6.34Z"/>
      <path class="cls-2" d="M52.83,43.08c-.05-1.39-.09-2.84.03-4.61.14-1.97.47-4.39,1.26-7.19.53-1.87,1.45-3.59,2.55-5.2,1.9-2.79,2.85-6.26,2.4-9.93-.86-7.01-6.82-12.45-13.88-12.66-3.49-.1-6.68,1.02-9.21,2.94-1.5,1.15-3.33,1.79-5.23,1.79h-.08s-.35,0-.35,0c-1.91,0-3.72-.74-5.18-1.97-2.81-2.37-6.53-3.7-10.56-3.36-4.19.35-7.89,2.55-10.31,5.76C2.1,5.84.61,2.95.08,0,.06.61.03,1.19,0,1.73c-.03,4.28,1.18,7.88,3.29,10.98,9.03,14.22,37.78,19.04,49.54,30.37Z"/>
    </g>
    <text class="cls-1" transform="translate(69.85 43.08)"><tspan x="0" y="0">DENTNUTZ</tspan></text>
  </g>
</svg>